HIERARCHY
ROOT root
{
	OFFSET 0.000000 0.000000 0.000000
	CHANNELS 6 Xposition Yposition Zposition Zrotation Yrotation Xrotation
	JOINT lhip
	{
		OFFSET 0.058581 -0.082280 -0.017664
		CHANNELS 3 Zrotation Yrotation Xrotation
		JOINT lknee
		{
			OFFSET 0.043451 -0.386469 0.008037
			CHANNELS 3 Zrotation Yrotation Xrotation
			JOINT lankle
			{
				OFFSET -0.014790 -0.426874 -0.037428
				CHANNELS 3 Zrotation Yrotation Xrotation
				JOINT ltoe
				{
					OFFSET 0.041054 -0.060286 0.122042
					CHANNELS 3 Zrotation Yrotation Xrotation
					End Site
					{
						OFFSET 0.000000 0.000000 0.000000
					}
				}
			}
		}
	}
	JOINT rhip
	{
		OFFSET -0.060310 -0.090513 -0.013543
		CHANNELS 3 Zrotation Yrotation Xrotation
		JOINT rknee
		{
			OFFSET -0.043257 -0.383688 -0.004843
			CHANNELS 3 Zrotation Yrotation Xrotation
			JOINT rankle
			{
				OFFSET 0.019056 -0.420046 -0.034562
				CHANNELS 3 Zrotation Yrotation Xrotation
				JOINT rtoe
				{
					OFFSET -0.034840 -0.062106 0.130323
					CHANNELS 3 Zrotation Yrotation Xrotation
					End Site
					{
						OFFSET 0.000000 0.000000 0.000000
					}
				}
			}
		}
	}
	JOINT lowerback
	{
		OFFSET 0.004439 0.124404 -0.038385
		CHANNELS 3 Zrotation Yrotation Xrotation
		JOINT upperback
		{
			OFFSET 0.004488 0.137956 0.026820
			CHANNELS 3 Zrotation Yrotation Xrotation
			JOINT chest
			{
				OFFSET -0.002265 0.056032 0.002855
				CHANNELS 3 Zrotation Yrotation Xrotation
				JOINT lowerneck
				{
					OFFSET -0.013390 0.211636 -0.033468
					CHANNELS 3 Zrotation Yrotation Xrotation
					JOINT upperneck
					{
						OFFSET 0.010113 0.088937 0.050410
						CHANNELS 3 Zrotation Yrotation Xrotation
						End Site
						{
							OFFSET 0.000000 0.000000 0.000000
						}
					}
				}
				JOINT lclavicle
				{
					OFFSET 0.071702 0.114000 -0.018898
					CHANNELS 3 Zrotation Yrotation Xrotation
					JOINT lshoulder
					{
						OFFSET 0.122921 0.045205 -0.019046
						CHANNELS 3 Zrotation Yrotation Xrotation
						JOINT lelbow
						{
							OFFSET 0.255332 -0.015649 -0.022946
							CHANNELS 3 Zrotation Yrotation Xrotation
							JOINT lwrist
							{
								OFFSET 0.265709 0.012698 -0.007375
								CHANNELS 3 Zrotation Yrotation Xrotation
								End Site
								{
									OFFSET 0.000000 0.000000 0.000000
								}
							}
						}
					}
				}
				JOINT rclavicle
				{
					OFFSET -0.082954 0.112472 -0.023707
					CHANNELS 3 Zrotation Yrotation Xrotation
					JOINT rshoulder
					{
						OFFSET -0.113228 0.046853 -0.008472
						CHANNELS 3 Zrotation Yrotation Xrotation
						JOINT relbow
						{
							OFFSET -0.260127 -0.014369 -0.031269
							CHANNELS 3 Zrotation Yrotation Xrotation
							JOINT rwrist
							{
								OFFSET -0.269108 0.006794 -0.006027
								CHANNELS 3 Zrotation Yrotation Xrotation
								End Site
								{
									OFFSET 0.000000 0.000000 0.000000
								}
							}
						}
					}
				}
			}
		}
	}
}
MOTION
Frames: 7
Frame Time: 0.033333
-1.982939 1.366465 0.993197 163.615981 -1.027677 82.438999 0.506240 5.733624 16.791501 -2.248499 -15.378081 9.598460 -0.905295 20.787982 -14.711420 0.000000 -0.000000 0.000000 1.442256 -7.725213 -22.309461 -4.399954 -12.408943 0.464747 -5.233731 -29.233588 -1.091105 0.000000 -0.000000 0.000000 -6.116414 -7.450865 2.850411 1.403389 -7.957888 2.856846 1.946917 -1.217170 -5.117114 -1.677724 -15.533868 -0.916809 15.212916 -2.006427 3.232935 -10.536610 -31.399624 -0.659102 -7.619128 -34.404183 -8.313407 0.717721 -7.733012 -0.942154 -9.010050 -6.756783 22.897935 0.336096 25.325271 -4.865140 9.045501 16.725991 -16.134598 -6.884228 11.405386 -6.725313 5.222529 3.849478 19.452069 
-1.969187 1.387055 0.991139 163.458499 -1.511965 83.158738 0.595288 5.503971 16.862023 -2.743618 -15.358809 11.544760 -1.440581 20.452139 -13.839500 0.000000 -0.000000 0.000000 1.276935 -8.263783 -22.218527 -3.865308 -12.982392 1.478806 -5.699831 -29.416480 -1.753109 0.000000 -0.000000 0.000000 -6.154411 -7.559434 2.161735 1.701203 -8.201501 2.777300 2.140345 -1.439659 -5.478202 -1.344383 -15.926217 -1.219066 15.447027 -2.069443 3.195593 -10.308694 -31.495175 -0.144418 -7.626174 -35.051317 -9.166126 1.303955 -7.151655 -0.849770 -9.772256 -6.603835 23.378261 -0.284538 24.881874 -5.142348 9.599525 16.755868 -16.583037 -7.571138 11.260312 -6.784696 5.098117 4.073803 20.204102 
-1.952518 1.409069 0.988450 162.996593 -2.216602 83.890120 1.023624 5.406935 16.755885 -3.900056 -14.988267 13.974116 -2.037408 19.748790 -11.859779 0.000000 -0.000000 0.000000 1.548546 -8.434755 -21.325932 -3.884631 -13.068388 1.770028 -6.151399 -29.449620 -1.738446 0.000000 -0.000000 0.000000 -6.584504 -7.574808 1.118649 2.130017 -8.735706 2.998260 2.502009 -1.711619 -5.892665 -1.157006 -15.951791 -1.291303 15.620125 -2.026422 3.026940 -10.612074 -32.025283 0.596066 -6.448391 -34.343647 -9.244385 0.666229 -7.319136 -0.744870 -9.492368 -6.843509 22.558468 0.039235 25.401448 -4.678470 8.674257 16.228601 -16.407898 -7.785524 11.184301 -7.168829 4.704967 4.299625 19.553612 
-1.934157 1.433447 0.986464 162.421763 -3.083736 84.597637 1.533910 5.190566 16.334760 -5.292870 -14.203417 17.130656 -3.128569 18.557685 -8.350507 0.000000 -0.000000 0.000000 1.782150 -8.650371 -19.609444 -4.029180 -13.548063 0.679996 -7.357736 -29.653991 -0.070227 0.000000 -0.000000 0.000000 -6.854106 -7.606779 0.026557 2.484033 -9.352876 2.877976 2.790287 -2.107732 -6.444087 -0.791738 -15.915227 -1.078844 15.471238 -1.558857 2.828458 -10.598537 -32.327266 1.074239 -6.413966 -33.985455 -9.331813 0.504941 -7.208018 -0.482627 -9.436006 -6.707809 22.235871 -0.285831 25.484654 -5.340162 8.935430 16.892442 -16.384369 -7.727998 10.337301 -7.041766 4.071653 4.181809 19.663605 
-1.913123 1.458867 0.986064 161.365954 -3.547621 84.954299 3.156849 4.931228 15.007232 -7.451937 -12.161700 21.957814 -4.958425 16.616968 -1.645378 0.000000 -0.000000 0.000000 2.014871 -7.978361 -17.584417 -3.686980 -12.824638 -0.868514 -9.219882 -27.837823 4.344364 0.000000 -0.000000 0.000000 -6.786405 -7.640950 -0.582450 3.067180 -9.811796 2.017503 3.207699 -2.242921 -6.296085 -0.299626 -15.524304 -1.558838 15.265243 -1.818895 3.353782 -11.703345 -33.129611 1.873567 -6.084344 -33.570922 -8.789932 0.656298 -6.938496 -0.404744 -8.644961 -6.902680 20.943107 1.099693 25.908400 -4.864113 7.687531 16.925043 -16.250262 -7.897444 11.096999 -7.678084 3.359582 3.729469 20.263981 
-1.892348 1.483184 0.990594 159.506559 -3.878800 84.504668 4.664006 4.322765 12.491069 -9.746904 -9.486370 29.387053 -6.365844 14.753579 8.295169 0.000000 -0.000000 0.000000 2.083758 -6.770110 -15.638792 -2.959949 -10.916750 0.572628 -10.435267 -25.606026 6.208552 0.000000 -0.000000 0.000000 -6.359504 -7.508970 -0.539286 3.475346 -10.219231 1.393320 3.453953 -2.232224 -6.169099 0.169896 -15.471302 -1.426338 15.324044 -1.718763 3.663897 -12.665862 -34.139440 3.529853 -5.334205 -32.482456 -9.813050 0.189992 -7.494272 0.291286 -8.132258 -6.433134 19.873890 2.152939 26.774720 -4.081040 7.713371 17.746654 -17.881214 -8.123686 11.029024 -8.529920 2.544342 3.273033 22.487900 
-1.871768 1.505440 0.996379 157.165431 -4.150239 83.266812 6.014812 3.703200 10.173804 -11.787448 -7.187401 36.994615 -6.579550 13.493210 15.522631 0.000000 -0.000000 0.000000 2.173387 -5.365230 -12.633809 -2.205521 -9.005046 1.805262 -12.422659 -24.190866 7.032361 0.000000 -0.000000 0.000000 -6.543120 -7.127510 0.286055 4.108998 -10.396152 2.023352 4.148661 -2.258387 -6.801487 0.909977 -14.645459 -1.466241 15.063400 -1.981751 3.909103 -12.920956 -35.162109 4.573343 -4.898767 -32.420099 -10.441059 0.418846 -6.954768 1.114604 -9.257598 -7.154153 19.827600 2.801612 27.377361 -3.215050 7.627462 18.717342 -17.633803 -8.093371 10.718950 -8.082609 2.866522 2.678974 22.364974 
